CD_DA


// Track 1
TRACK AUDIO
NO COPY
NO PRE_EMPHASIS
TWO_CHANNEL_AUDIO
ISRC "000000000000"
FILE "/Users/M3PUser/Music/arccd/00304/00304.bin" 0 04:04:74


// Track 2
TRACK AUDIO
NO COPY
NO PRE_EMPHASIS
TWO_CHANNEL_AUDIO
ISRC "000000000000"
FILE "/Users/M3PUser/Music/arccd/00304/00304.bin" 04:04:74 04:40:34


// Track 3
TRACK AUDIO
NO COPY
NO PRE_EMPHASIS
TWO_CHANNEL_AUDIO
ISRC "000000000000"
FILE "/Users/M3PUser/Music/arccd/00304/00304.bin" 08:45:33 08:09:44


// Track 4
TRACK AUDIO
NO COPY
NO PRE_EMPHASIS
TWO_CHANNEL_AUDIO
ISRC "000000000000"
FILE "/Users/M3PUser/Music/arccd/00304/00304.bin" 16:55:02 04:01:38


// Track 5
TRACK AUDIO
NO COPY
NO PRE_EMPHASIS
TWO_CHANNEL_AUDIO
ISRC "000000000000"
FILE "/Users/M3PUser/Music/arccd/00304/00304.bin" 20:56:40 04:02:54


// Track 6
TRACK AUDIO
NO COPY
NO PRE_EMPHASIS
TWO_CHANNEL_AUDIO
ISRC "000000000000"
FILE "/Users/M3PUser/Music/arccd/00304/00304.bin" 24:59:19 03:30:54


// Track 7
TRACK AUDIO
NO COPY
NO PRE_EMPHASIS
TWO_CHANNEL_AUDIO
ISRC "000000000000"
FILE "/Users/M3PUser/Music/arccd/00304/00304.bin" 28:29:73 03:35:48


// Track 8
TRACK AUDIO
NO COPY
NO PRE_EMPHASIS
TWO_CHANNEL_AUDIO
ISRC "000000000000"
FILE "/Users/M3PUser/Music/arccd/00304/00304.bin" 32:05:46 04:51:72


// Track 9
TRACK AUDIO
NO COPY
NO PRE_EMPHASIS
TWO_CHANNEL_AUDIO
ISRC "000000000000"
FILE "/Users/M3PUser/Music/arccd/00304/00304.bin" 36:57:43 03:36:41


// Track 10
TRACK AUDIO
NO COPY
NO PRE_EMPHASIS
TWO_CHANNEL_AUDIO
ISRC "000000000000"
FILE "/Users/M3PUser/Music/arccd/00304/00304.bin" 40:34:09 07:28:27


// Track 11
TRACK AUDIO
NO COPY
NO PRE_EMPHASIS
TWO_CHANNEL_AUDIO
ISRC "000000000000"
FILE "/Users/M3PUser/Music/arccd/00304/00304.bin" 48:02:36 03:54:22

